<svg width="9" height="10" viewBox="0 0 9 10" fill="none" xmlns="http://www.w3.org/2000/svg">
<path d="M8.3955 3.61664L8.334 3.47944L8.19694 3.54127L4.96401 4.99974L5.1844 1.00827L5.19314 0.85H5.03463H4.22863H4.07012L4.07885 1.00827L4.29924 4.99974L1.06631 3.54127L0.929254 3.47944L0.86775 3.61664L0.52975 4.37064L0.46017 4.52586L0.622871 4.57548L4.0685 5.62627L1.41112 8.70193L1.30927 8.81981L1.43092 8.91713L2.08092 9.43713L2.20678 9.53782L2.29818 9.40506L4.64397 5.99749L6.96465 9.40445L7.05584 9.53832L7.18233 9.43713L7.83233 8.91713L7.95398 8.81981L7.85213 8.70193L5.19476 5.62627L8.64038 4.57548L8.80308 4.52586L8.7335 4.37064L8.3955 3.61664Z" fill="#2B2724" stroke="#2B2724" stroke-width="0.3"/>
</svg>
