<svg width="338" height="43" viewBox="0 0 338 43" fill="none" xmlns="http://www.w3.org/2000/svg">
<path d="M161.364 26.636C160.105 25.3774 158.502 24.5202 156.756 24.1729C155.01 23.8257 153.2 24.0039 151.556 24.6851C149.911 25.3663 148.506 26.5198 147.517 27.9999C146.528 29.4799 146 31.22 146 33" stroke="white" stroke-width="2"/>
<path d="M106.482 1.08105H122.761C126.384 1.08105 141.149 1.51349 141.149 19.9459C141.149 37.8378 128.061 38.9189 121.95 38.9189H106.482V1.08105ZM115.406 8.43241V31.5675H121.084C128.061 31.5675 131.522 27.9459 131.522 20.1081C131.522 9.62159 125.357 8.43241 121.625 8.43241H115.406Z" fill="white"/>
<path d="M81.7606 16.1081H100.257V23.0811H81.7606V31.5675H103.286V38.9189H72.8369V1.08105H102.745V8.43241H81.7606V16.1081Z" fill="white"/>
<path d="M48.1146 16.1081H66.611V23.0811H48.1146V31.5675H69.6396V38.9189H39.1909V1.08105H69.0988V8.43241H48.1146V16.1081Z" fill="white"/>
<path d="M9.03185 15.2433H8.92369V38.919H0V1.08118H9.03185L23.9588 24.5947H24.121V1.08118H33.0447V38.919H23.9588L9.03185 15.2433Z" fill="white"/>
<path d="M313.987 15.2433H313.879V38.919H304.955V1.08118H313.987L328.914 24.5947H329.076V1.08118H338V38.919H328.914L313.987 15.2433Z" fill="white"/>
<path d="M281.488 40C266.561 40 262.342 28.8108 262.342 20C262.342 11.1892 266.561 0 281.488 0C294.522 0 300.633 8.54054 300.633 20C300.633 31.4595 294.522 40 281.488 40ZM281.488 32.6486C290.574 32.6486 291.006 23.1892 291.006 20C291.006 16.5405 290.574 7.35135 281.488 7.35135C276.566 7.35135 272.023 10 272.023 20C272.023 29.8919 276.566 32.6486 281.488 32.6486Z" fill="white"/>
<path d="M249.02 1.08118H257.944V38.919H249.02V1.08118Z" fill="white"/>
<path d="M212.63 26.6486H221.662C221.662 28.973 222.852 32.6486 229.233 32.6486C232.532 32.6486 235.994 32.0541 235.994 28.7568C235.994 24.7027 230.91 23.8378 226.367 22.8649C219.607 21.4054 213.874 19.6216 213.874 11.1892C213.874 5.08108 217.93 0 229.396 0C239.888 0 243.619 6 243.782 11.4595H235.345C235.074 9.40541 233.722 7.35135 228.855 7.35135C224.42 7.35135 223.014 9.08108 223.014 10.973C223.014 14.2162 227.232 15.0811 230.477 15.6216C238.482 17.2432 245.134 19.0811 245.134 27.4054C245.134 30.4865 244.268 40 229.125 40C215.172 40 212.63 31.6757 212.63 26.6486Z" fill="white"/>
<path d="M199.686 1.08118H208.61V38.919H199.686V1.08118Z" fill="white"/>
<path d="M181.089 28.1082L188.444 1.08118H198.341L185.47 38.919H176.005L163.188 1.08118H173.409L181.089 28.1082Z" fill="white"/>
<path d="M160.027 33.9346C160.027 36.6817 157.784 38.9086 155.018 38.9086C152.251 38.9086 150.009 36.6817 150.009 33.9346C150.009 31.1876 152.251 28.9606 155.018 28.9606C157.784 28.9606 160.027 31.1876 160.027 33.9346Z" fill="white"/>
</svg>
